<?xml version="1.0" encoding="UTF-8" standalone="no"?>
<!-- Created with Inkscape (http://www.inkscape.org/) -->

<svg
   xmlns:osb="http://www.openswatchbook.org/uri/2009/osb"
   xmlns:dc="http://purl.org/dc/elements/1.1/"
   xmlns:cc="http://creativecommons.org/ns#"
   xmlns:rdf="http://www.w3.org/1999/02/22-rdf-syntax-ns#"
   xmlns:svg="http://www.w3.org/2000/svg"
   xmlns="http://www.w3.org/2000/svg"
   xmlns:sodipodi="http://sodipodi.sourceforge.net/DTD/sodipodi-0.dtd"
   xmlns:inkscape="http://www.inkscape.org/namespaces/inkscape"
   width="210mm"
   height="210mm"
   viewBox="0 0 210 210"
   version="1.1"
   id="svg8"
   inkscape:version="0.92.1 r15371"
   sodipodi:docname="drawing2.svg"
   inkscape:export-filename="C:\Users\Konstantin\Desktop\bitmap2.png"
   inkscape:export-xdpi="26.34824"
   inkscape:export-ydpi="26.34824">
  <defs
     id="defs2">
    <linearGradient
       id="linearGradient10034"
       osb:paint="solid">
      <stop
         style="stop-color:#f6ff00;stop-opacity:1;"
         offset="0"
         id="stop10032" />
    </linearGradient>
    <clipPath
       clipPathUnits="userSpaceOnUse"
       id="clipPath4748">
      <path
         style="fill:#69e638;fill-opacity:1;stroke:none;stroke-width:0.76899999;stroke-miterlimit:4;stroke-dasharray:none;stroke-opacity:1"
         d="M 37.782449,43.148162 V 228.89858 a 74.635918,50.216305 0 0 1 74.855891,-49.91788 74.635918,50.216305 0 0 1 74.39236,49.91788 h 1.00769 V 43.148162 Z"
         id="path4750"
         inkscape:connector-curvature="0" />
    </clipPath>
  </defs>
  <sodipodi:namedview
     id="base"
     pagecolor="#ffffff"
     bordercolor="#666666"
     borderopacity="1.0"
     inkscape:pageopacity="0.0"
     inkscape:pageshadow="2"
     inkscape:zoom="0.6472526"
     inkscape:cx="332.37583"
     inkscape:cy="407.90177"
     inkscape:document-units="mm"
     inkscape:current-layer="layer1"
     showgrid="false"
     inkscape:snap-grids="true"
     inkscape:window-width="1920"
     inkscape:window-height="1001"
     inkscape:window-x="-9"
     inkscape:window-y="-9"
     inkscape:window-maximized="1" />
  <metadata
     id="metadata5">
    <rdf:RDF>
      <cc:Work
         rdf:about="">
        <dc:format>image/svg+xml</dc:format>
        <dc:type
           rdf:resource="http://purl.org/dc/dcmitype/StillImage" />
        <dc:title></dc:title>
      </cc:Work>
    </rdf:RDF>
  </metadata>
  <g
     inkscape:label="Layer 1"
     inkscape:groupmode="layer"
     id="layer1"
     transform="translate(0,-87)">
    <circle
       style="fill:#152031;fill-opacity:1;stroke:none;stroke-width:1.33341861;stroke-miterlimit:4;stroke-dasharray:none;stroke-opacity:1"
       id="path4492"
       cx="107.02909"
       cy="192.7317"
       r="100"
       inkscape:export-xdpi="26.34824"
       inkscape:export-ydpi="26.34824" />
    <g
       id="g4501"
       transform="translate(-8.9931402,61.725645)"
       clip-path="url(#clipPath4748)"
       inkscape:export-xdpi="26.34824"
       inkscape:export-ydpi="26.34824">
      <path
         sodipodi:nodetypes="ccccccccc"
         inkscape:connector-curvature="0"
         id="path10022"
         d="m 74.428206,184.08464 c -1.973106,-3.11248 -3.631996,-5.82934 -3.686423,-6.03747 -0.09006,-0.34437 9.068517,-44.13312 9.496177,-45.16033 0.14669,-0.35236 2.57517,25.76111 6.51032,31.71931 4.720288,6.31596 23.85729,21.76342 24.35356,22.58467 0.16428,0.27185 -0.89844,0.46453 -2.25442,0.33091 -3.03641,-0.2992 -13.444144,-0.16914 -17.641764,0.22046 -3.49955,0.3248 -10.77095,1.39437 -12.59931,1.85326 -0.5574,0.1399 -0.79271,-0.17047 -4.17814,-5.51081 z"
         style="fill:#ff9400;fill-opacity:1;stroke:#ff9400;stroke-width:0.67930984;stroke-miterlimit:4;stroke-dasharray:none;stroke-opacity:1" />
      <path
         inkscape:connector-curvature="0"
         id="path11513"
         d="m 146.92336,96.199242 -1.15688,-17.518419 5.28858,-5.784385 z"
         style="fill:#ff9400;fill-opacity:1;stroke:none;stroke-width:0.26458332px;stroke-linecap:butt;stroke-linejoin:miter;stroke-opacity:1" />
      <path
         inkscape:connector-curvature="0"
         id="path11515"
         d="m 86.931026,91.241199 0.165269,11.238231 2.809558,-17.518419 z"
         style="fill:#ff9400;fill-opacity:1;stroke:none;stroke-width:0.26458332px;stroke-linecap:butt;stroke-linejoin:miter;stroke-opacity:1" />
      <path
         sodipodi:nodetypes="cccc"
         inkscape:connector-curvature="0"
         id="path11519"
         d="m 105.1222,62.286849 0.32619,11.074936 5.89702,-20.788281 z"
         style="fill:#ff9400;fill-opacity:1;stroke:none;stroke-width:0.41872594px;stroke-linecap:butt;stroke-linejoin:miter;stroke-opacity:1" />
      <path
         sodipodi:nodetypes="scccscs"
         inkscape:connector-curvature="0"
         id="path11521"
         d="m 561.73593,729.46397 c -14.90316,-5.62025 -37.53962,-8.71002 -37.78581,-8.99175 -0.50177,-0.57421 -52.11312,-182.19771 -52.13607,-183.1796 36.63148,-40.66083 62.52133,-76.79812 102.18589,-116.97693 0.24372,1.84877 16.39421,314.07607 16.39421,316.93879 0,1.62012 -0.27808,2.50059 -0.78079,2.47221 -0.42944,-0.0242 -12.97428,-4.64246 -27.87743,-10.26272 z"
         style="fill:#ff8500;fill-opacity:1;stroke:#ff8500;stroke-width:1.8154757;stroke-miterlimit:4;stroke-dasharray:none;stroke-opacity:1"
         transform="scale(0.26458333)" />
      <path
         sodipodi:nodetypes="scccsccs"
         inkscape:connector-curvature="0"
         id="path11523"
         d="m 449.74191,463.28028 -19.15507,-67.80541 20.12789,-67.09484 20.12789,-67.09484 16.05846,79.8046 c 8.83215,43.89254 14.95887,151.61618 14.95493,152.26725 -0.008,1.35596 -31.93232,36.61884 -32.55194,37.2886 -0.2239,0.24202 -9.02688,-30.07239 -19.56216,-67.36536 z"
         style="fill:#f60d00;fill-opacity:1;stroke:#f60d00;stroke-width:1.8154757;stroke-miterlimit:4;stroke-dasharray:none;stroke-opacity:1"
         transform="scale(0.26458333)" />
      <path
         inkscape:connector-curvature="0"
         id="path11525"
         d="m 488.57859,718.46967 c -12.53956,-1.32402 -30.83717,-3.60816 -40.66136,-5.07587 l -17.86217,-2.66857 -36.16879,-35.25008 C 373.99343,656.08761 352.00802,634.60813 345.0298,627.74298 l -12.68766,-12.48208 -8.03077,-33.01737 -8.03076,-33.01738 44.12642,-100.28861 c 31.59894,-71.81671 44.25813,-99.96407 44.59037,-99.14545 0.25518,0.62873 25.22441,84.01121 55.48718,185.2944 30.26276,101.28319 55.1781,184.55489 55.36742,185.04824 0.4701,1.22508 -0.41012,1.17134 -27.27341,-1.66506 z"
         style="fill:#ff4d00;fill-opacity:1;stroke:#ff4d00;stroke-width:1.8154757;stroke-miterlimit:4;stroke-dasharray:none;stroke-opacity:1"
         transform="scale(0.26458333)" />
    </g>
  </g>
</svg>
