<?xml version="1.0" encoding="UTF-8" standalone="no"?>
<!-- Created with Inkscape (http://www.inkscape.org/) -->

<svg
   xmlns:dc="http://purl.org/dc/elements/1.1/"
   xmlns:cc="http://creativecommons.org/ns#"
   xmlns:rdf="http://www.w3.org/1999/02/22-rdf-syntax-ns#"
   xmlns:svg="http://www.w3.org/2000/svg"
   xmlns="http://www.w3.org/2000/svg"
   xmlns:sodipodi="http://sodipodi.sourceforge.net/DTD/sodipodi-0.dtd"
   xmlns:inkscape="http://www.inkscape.org/namespaces/inkscape"
   width="210mm"
   height="210mm"
   viewBox="0 0 210 210"
   version="1.1"
   id="svg8"
   inkscape:version="0.92.1 r15371"
   sodipodi:docname="world.svg">
  <defs
     id="defs2" />
  <sodipodi:namedview
     id="base"
     pagecolor="#ffffff"
     bordercolor="#666666"
     borderopacity="1.0"
     inkscape:pageopacity="0.0"
     inkscape:pageshadow="2"
     inkscape:zoom="0.80046697"
     inkscape:cx="45.032824"
     inkscape:cy="500.81271"
     inkscape:document-units="mm"
     inkscape:current-layer="layer1"
     showgrid="false"
     inkscape:window-width="1920"
     inkscape:window-height="1001"
     inkscape:window-x="-9"
     inkscape:window-y="-9"
     inkscape:window-maximized="1" />
  <metadata
     id="metadata5">
    <rdf:RDF>
      <cc:Work
         rdf:about="">
        <dc:format>image/svg+xml</dc:format>
        <dc:type
           rdf:resource="http://purl.org/dc/dcmitype/StillImage" />
        <dc:title></dc:title>
      </cc:Work>
    </rdf:RDF>
  </metadata>
  <g
     inkscape:label="Layer 1"
     inkscape:groupmode="layer"
     id="layer1"
     transform="translate(0,-87)">
    <ellipse
       style="fill:#152031;fill-opacity:1;stroke:none;stroke-width:1.07086504;stroke-miterlimit:4;stroke-dasharray:none;stroke-opacity:1"
       id="path4485"
       cx="104.78001"
       cy="191.22841"
       rx="104.77999"
       ry="105.11052" />
    <path
       style="fill:#56c14b;fill-opacity:1;stroke:none;stroke-width:0.26458332px;stroke-linecap:butt;stroke-linejoin:miter;stroke-opacity:1"
       d="M 4.0916019,219.2773 58.504913,198.50021 62.471345,158.83586 90.236389,141.64798 43.961318,119.83259 31.896745,115.94878 c -15.41923,13.63606 -25.8362961,34.32497 -29.9304724,54.78921 -3.5163541,17.57606 -1.90440754,35.73373 2.1253293,48.53931 z"
       id="path4487"
       inkscape:connector-curvature="0"
       sodipodi:nodetypes="ccccccsc" />
    <path
       style="fill:#56c14b;fill-opacity:1;stroke:none;stroke-width:0.26458332px;stroke-linecap:butt;stroke-linejoin:miter;stroke-opacity:1"
       d="m 189.23143,252.22407 -34.87101,22.29947 -3.96644,-37.3506 -22.69358,-10.39729 14.00401,-14.47313 40.03213,-9.51507 -45.22508,-28.08585 -11.56877,-20.16271 33.38416,-3.6359 15.86573,-20.82378 4.48291,-13.32475 c 0,0 8.00656,7.87095 15.528,19.77039 2.96965,4.6982 5.61706,10.17236 8.03987,15.81382 6.39451,14.88949 7.62666,31.39111 7.22114,43.40799 -0.11709,3.46978 -0.78906,9.7005 -1.7507,15.06328 -0.66123,3.68749 -1.75963,7.71921 -3.00485,11.83058 -0.58667,1.93704 -1.27524,4.06522 -2.07345,6.10141 -1.5669,3.99705 -3.35578,7.66884 -4.88289,10.70225 -9.50983,18.88989 -8.52118,12.77989 -8.52118,12.77989 z"
       id="path4491"
       inkscape:connector-curvature="0"
       sodipodi:nodetypes="cccccccccccsssssssc" />
    <path
       style="fill:#56c14b;stroke:#000000;stroke-width:0.26458332px;stroke-linecap:butt;stroke-linejoin:miter;stroke-opacity:1;fill-opacity:1"
       d="m 44.875087,241.84104 h 34.591212 l 10.751322,14.02347 -11.686222,6.07683 -9.348975,-9.81642 -16.360709,4.67449 z"
       id="path4493"
       inkscape:connector-curvature="0" />
  </g>
</svg>
